<svg width="25" height="24" viewBox="0 0 25 24" fill="none" xmlns="http://www.w3.org/2000/svg">
<path d="M17.6875 3V3.0625H17.75H20C20.3812 3.0625 20.7469 3.21395 21.0165 3.48353C21.286 3.75312 21.4375 4.11875 21.4375 4.5V19.5C21.4375 19.8812 21.286 20.2469 21.0165 20.5165C20.7469 20.786 20.3812 20.9375 20 20.9375H5C4.61875 20.9375 4.25312 20.786 3.98353 20.5165C3.71395 20.2469 3.5625 19.8812 3.5625 19.5V4.5C3.5625 4.11875 3.71395 3.75312 3.98353 3.48353C4.25312 3.21395 4.61875 3.0625 5 3.0625H7.25H7.3125V3V2.25C7.3125 2.06766 7.38493 1.8928 7.51386 1.76386C7.6428 1.63493 7.81766 1.5625 8 1.5625C8.18234 1.5625 8.3572 1.63493 8.48614 1.76386C8.61507 1.8928 8.6875 2.06766 8.6875 2.25V3V3.0625H8.75H16.25H16.3125V3V2.25C16.3125 2.06766 16.3849 1.8928 16.5139 1.76386C16.6428 1.63493 16.8177 1.5625 17 1.5625C17.1823 1.5625 17.3572 1.63493 17.4861 1.76386C17.6151 1.8928 17.6875 2.06766 17.6875 2.25V3ZM7.3125 4.5V4.4375H7.25H5H4.9375V4.5V7.5V7.5625H5H20H20.0625V7.5V4.5V4.4375H20H17.75H17.6875V4.5V5.25C17.6875 5.43234 17.6151 5.6072 17.4861 5.73614C17.3572 5.86507 17.1823 5.9375 17 5.9375C16.8177 5.9375 16.6428 5.86507 16.5139 5.73614C16.3849 5.6072 16.3125 5.43234 16.3125 5.25V4.5V4.4375H16.25H8.75H8.6875V4.5V5.25C8.6875 5.43234 8.61507 5.6072 8.48614 5.73614C8.3572 5.86507 8.18234 5.9375 8 5.9375C7.81766 5.9375 7.6428 5.86507 7.51386 5.73614C7.38493 5.6072 7.3125 5.43234 7.3125 5.25V4.5ZM20 19.5625H20.0625V19.5V9V8.9375H20H5H4.9375V9V19.5V19.5625H5H20ZM13.25 14.9375H13.1875V15V16.5C13.1875 16.6823 13.1151 16.8572 12.9861 16.9861C12.8572 17.1151 12.6823 17.1875 12.5 17.1875C12.3177 17.1875 12.1428 17.1151 12.0139 16.9861C11.8849 16.8572 11.8125 16.6823 11.8125 16.5V15V14.9375H11.75H10.25C10.0677 14.9375 9.8928 14.8651 9.76386 14.7361C9.63493 14.6072 9.5625 14.4323 9.5625 14.25C9.5625 14.0677 9.63493 13.8928 9.76386 13.7639C9.8928 13.6349 10.0677 13.5625 10.25 13.5625H11.75H11.8125V13.5V12C11.8125 11.8177 11.8849 11.6428 12.0139 11.5139C12.1428 11.3849 12.3177 11.3125 12.5 11.3125C12.6823 11.3125 12.8572 11.3849 12.9861 11.5139C13.1151 11.6428 13.1875 11.8177 13.1875 12V13.5V13.5625H13.25H14.75C14.9323 13.5625 15.1072 13.6349 15.2361 13.7639C15.3651 13.8928 15.4375 14.0677 15.4375 14.25C15.4375 14.4323 15.3651 14.6072 15.2361 14.7361C15.1072 14.8651 14.9323 14.9375 14.75 14.9375H13.25Z" fill="white" stroke="white" stroke-width="0.125"/>
</svg>
