<svg width="24" height="24" viewBox="0 0 24 24" fill="none" xmlns="http://www.w3.org/2000/svg">
<path d="M21.1184 15.053L21.2032 15L21.1184 14.947L17.2831 12.5498L17.1875 12.49V12.6028V17.3972V17.51L17.2831 17.4502L21.1184 15.053ZM3.0625 6C3.0625 5.81766 3.13493 5.6428 3.26386 5.51386C3.3928 5.38493 3.56766 5.3125 3.75 5.3125H20.25C20.4323 5.3125 20.6072 5.38493 20.7361 5.51386C20.8651 5.6428 20.9375 5.81766 20.9375 6C20.9375 6.18234 20.8651 6.3572 20.7361 6.48614C20.6072 6.61507 20.4323 6.6875 20.25 6.6875H3.75C3.56766 6.6875 3.3928 6.61507 3.26386 6.48614C3.13493 6.3572 3.0625 6.18234 3.0625 6ZM3.75 11.3125H12.75C12.9323 11.3125 13.1072 11.3849 13.2361 11.5139C13.3651 11.6428 13.4375 11.8177 13.4375 12C13.4375 12.1823 13.3651 12.3572 13.2361 12.4861C13.1072 12.6151 12.9323 12.6875 12.75 12.6875H3.75C3.56766 12.6875 3.3928 12.6151 3.26386 12.4861C3.13493 12.3572 3.0625 12.1823 3.0625 12C3.0625 11.8177 3.13493 11.6428 3.26386 11.5139C3.3928 11.3849 3.56766 11.3125 3.75 11.3125ZM3.75 17.3125H12.75C12.9323 17.3125 13.1072 17.3849 13.2361 17.5139C13.3651 17.6428 13.4375 17.8177 13.4375 18C13.4375 18.1823 13.3651 18.3572 13.2361 18.4861C13.1072 18.6151 12.9323 18.6875 12.75 18.6875H3.75C3.56766 18.6875 3.3928 18.6151 3.26386 18.4861C3.13493 18.3572 3.0625 18.1823 3.0625 18C3.0625 17.8177 3.13493 17.6428 3.26386 17.5139C3.3928 17.3849 3.56766 17.3125 3.75 17.3125ZM23.1875 15C23.1874 15.1166 23.1577 15.2311 23.1012 15.3331C23.0447 15.435 22.9632 15.5209 22.8644 15.5826L16.8644 19.3326C16.7603 19.3977 16.6408 19.4337 16.5181 19.4369C16.3955 19.4401 16.2742 19.4105 16.1669 19.351C16.0595 19.2916 15.9701 19.2045 15.9078 19.0988C15.8455 18.9931 15.8126 18.8727 15.8125 18.75V11.25C15.8126 11.1273 15.8455 11.0069 15.9078 10.9012C15.9701 10.7955 16.0595 10.7084 16.1669 10.649C16.2742 10.5895 16.3955 10.5599 16.5181 10.5631C16.6408 10.5663 16.7603 10.6023 16.8644 10.6674L22.8644 14.4174C22.9632 14.4791 23.0447 14.565 23.1012 14.6669C23.1578 14.7689 23.1874 14.8835 23.1875 15Z" fill="#FF46A2" stroke="#FF46A2" stroke-width="0.125"/>
</svg>
