<svg width="21" height="19" viewBox="0 0 21 19" fill="none" xmlns="http://www.w3.org/2000/svg">
<path d="M20.1931 3.46302C20.1363 3.32596 20.0402 3.20881 19.9169 3.12637C19.7936 3.04394 19.6486 2.99992 19.5002 2.99989H16.6474C16.2486 2.32131 15.6809 1.75747 14.9997 1.36321C14.3184 0.96894 13.5467 0.757653 12.7596 0.74989C12.1732 0.742199 11.5912 0.851865 11.0478 1.07244C10.5045 1.29301 10.0107 1.62003 9.59556 2.03427C9.16831 2.45354 8.8292 2.954 8.59817 3.50622C8.36714 4.05845 8.24884 4.65129 8.25024 5.24989V5.82083C4.47587 4.8252 1.38868 1.75489 1.35587 1.72208C1.25525 1.62057 1.12772 1.54992 0.988291 1.51846C0.848866 1.487 0.703354 1.49603 0.568892 1.5445C0.434429 1.59296 0.316615 1.67884 0.229324 1.79202C0.142033 1.9052 0.0888996 2.04096 0.0761812 2.18333C-0.327881 6.66364 0.973369 9.66177 2.13868 11.3877C2.70688 12.2409 3.3981 13.0054 4.18993 13.6565C2.76212 15.2999 0.513994 16.1633 0.489619 16.1727C0.383788 16.2123 0.288283 16.2754 0.21024 16.3571C0.132197 16.4389 0.0736333 16.5372 0.0389257 16.6447C0.00421802 16.7523 -0.00573644 16.8663 0.00980582 16.9782C0.0253481 17.0901 0.0659851 17.1971 0.128681 17.2911C0.198993 17.3961 0.480244 17.7646 1.16743 18.1086C2.01681 18.5343 3.13899 18.7499 4.50024 18.7499C11.1256 18.7499 16.6615 13.648 17.2268 7.08364L20.0309 4.28052C20.1357 4.17557 20.2071 4.04188 20.236 3.89637C20.2648 3.75085 20.2499 3.60004 20.1931 3.46302ZM15.9743 6.2202C15.8457 6.3491 15.7684 6.52038 15.7568 6.70208C15.3752 12.6168 10.4327 17.2499 4.50024 17.2499C3.51024 17.2499 2.81274 17.1186 2.32337 16.9611C3.40243 16.3752 4.90712 15.3674 5.87462 13.9161C5.9314 13.8308 5.97009 13.7347 5.9883 13.6339C6.00651 13.533 6.00384 13.4295 5.98047 13.3297C5.9571 13.2299 5.91353 13.1359 5.85243 13.0536C5.79133 12.9713 5.71401 12.9024 5.62524 12.8511C5.58118 12.8258 1.50868 10.3818 1.50024 3.85114C3.00024 5.06989 5.74243 6.96083 8.87556 7.4877C8.98294 7.50581 9.09297 7.50031 9.19801 7.4716C9.30305 7.44288 9.40058 7.39164 9.48382 7.32143C9.56706 7.25121 9.63401 7.16372 9.68002 7.06502C9.72603 6.96632 9.74999 6.85879 9.75024 6.74989V5.24989C9.7494 4.84981 9.82859 4.45361 9.98315 4.08459C10.1377 3.71557 10.3645 3.3812 10.6502 3.10114C10.9241 2.82673 11.2503 2.61002 11.6094 2.46381C11.9684 2.3176 12.3532 2.24486 12.7409 2.24989C13.9277 2.26489 15.0368 2.98864 15.5009 4.05083C15.5594 4.18437 15.6555 4.29797 15.7776 4.37772C15.8996 4.45748 16.0423 4.49993 16.1881 4.49989H17.6881L15.9743 6.2202Z" fill="#F01276"/>
</svg>
