<svg width="24" height="24" viewBox="0 0 24 24" fill="none" xmlns="http://www.w3.org/2000/svg">
<path d="M12.75 12.6875H12.6875V12.75V20.25C12.6875 20.4323 12.6151 20.6072 12.4861 20.7361C12.3572 20.8651 12.1823 20.9375 12 20.9375C11.8177 20.9375 11.6428 20.8651 11.5139 20.7361C11.3849 20.6072 11.3125 20.4323 11.3125 20.25V12.75V12.6875H11.25H3.75C3.56766 12.6875 3.3928 12.6151 3.26386 12.4861C3.13493 12.3572 3.0625 12.1823 3.0625 12C3.0625 11.8177 3.13493 11.6428 3.26386 11.5139C3.3928 11.3849 3.56766 11.3125 3.75 11.3125H11.25H11.3125V11.25V3.75C11.3125 3.56766 11.3849 3.3928 11.5139 3.26386C11.6428 3.13493 11.8177 3.0625 12 3.0625C12.1823 3.0625 12.3572 3.13493 12.4861 3.26386C12.6151 3.3928 12.6875 3.56766 12.6875 3.75V11.25V11.3125H12.75H20.25C20.4323 11.3125 20.6072 11.3849 20.7361 11.5139C20.8651 11.6428 20.9375 11.8177 20.9375 12C20.9375 12.1823 20.8651 12.3572 20.7361 12.4861C20.6072 12.6151 20.4323 12.6875 20.25 12.6875H12.75Z" fill="white" stroke="white" stroke-width="0.125"/>
</svg>
