<svg width="17" height="18" viewBox="0 0 17 18" fill="none" xmlns="http://www.w3.org/2000/svg">
<path d="M8.78061 9.53063L1.28061 17.0306C1.13988 17.1714 0.949013 17.2504 0.74999 17.2504C0.550967 17.2504 0.360095 17.1714 0.219365 17.0306C0.0786343 16.8899 -0.000427242 16.699 -0.000427246 16.5C-0.00042725 16.301 0.0786343 16.1101 0.219365 15.9694L7.18968 9L0.219365 2.03063C0.0786343 1.88989 -0.000427246 1.69902 -0.000427246 1.5C-0.000427246 1.30098 0.0786343 1.11011 0.219365 0.969375C0.360095 0.828645 0.550967 0.749583 0.74999 0.749583C0.949013 0.749583 1.13988 0.828645 1.28061 0.969375L8.78061 8.46937C8.85035 8.53903 8.90567 8.62175 8.94341 8.7128C8.98115 8.80384 9.00058 8.90144 9.00058 9C9.00058 9.09856 8.98115 9.19616 8.94341 9.28721C8.90567 9.37825 8.85035 9.46097 8.78061 9.53063ZM16.2806 8.46937L8.78061 0.969375C8.63988 0.828645 8.44901 0.749583 8.24999 0.749583C8.05097 0.749583 7.8601 0.828645 7.71936 0.969375C7.57863 1.11011 7.49957 1.30098 7.49957 1.5C7.49957 1.69902 7.57863 1.88989 7.71936 2.03063L14.6897 9L7.71936 15.9694C7.57863 16.1101 7.49957 16.301 7.49957 16.5C7.49957 16.699 7.57863 16.8899 7.71936 17.0306C7.8601 17.1714 8.05097 17.2504 8.24999 17.2504C8.44901 17.2504 8.63988 17.1714 8.78061 17.0306L16.2806 9.53063C16.3503 9.46097 16.4057 9.37825 16.4434 9.28721C16.4812 9.19616 16.5006 9.09856 16.5006 9C16.5006 8.90144 16.4812 8.80384 16.4434 8.7128C16.4057 8.62175 16.3503 8.53903 16.2806 8.46937Z" fill="white"/>
</svg>
