<svg width="48" height="48" viewBox="0 0 48 48" fill="none" xmlns="http://www.w3.org/2000/svg">
<path d="M0.5 24C0.5 11.0213 11.0213 0.5 24 0.5C36.9787 0.5 47.5 11.0213 47.5 24C47.5 36.9787 36.9787 47.5 24 47.5C11.0213 47.5 0.5 36.9787 0.5 24Z" fill="#FB923C"/>
<path d="M0.5 24C0.5 11.0213 11.0213 0.5 24 0.5C36.9787 0.5 47.5 11.0213 47.5 24C47.5 36.9787 36.9787 47.5 24 47.5C11.0213 47.5 0.5 36.9787 0.5 24Z" stroke="#FDBA74"/>
<path d="M24 32.3125H24.0001C26.2039 32.31 28.3167 31.4334 29.8751 29.8751C31.4334 28.3167 32.31 26.2039 32.3125 24.0001V24C32.3125 22.3559 31.825 20.7488 30.9116 19.3818C29.9982 18.0148 28.7 16.9494 27.1811 16.3203C25.6621 15.6911 23.9908 15.5265 22.3783 15.8472C20.7658 16.168 19.2847 16.9597 18.1222 18.1222C16.9597 19.2847 16.168 20.7658 15.8472 22.3783C15.5265 23.9908 15.6911 25.6621 16.3203 27.1811C16.9494 28.7 18.0148 29.9982 19.3818 30.9116C20.7488 31.825 22.3559 32.3125 24 32.3125ZM27.3816 23.4276L27.3816 23.4277C27.4759 23.4904 27.5533 23.5755 27.6068 23.6754C27.6602 23.7752 27.6882 23.8867 27.6882 24C27.6882 24.1133 27.6602 24.2248 27.6068 24.3246C27.5533 24.4245 27.4759 24.5096 27.3816 24.5723L27.3816 24.5724L22.8816 27.5724L22.8816 27.5724C22.778 27.6415 22.6576 27.6812 22.5333 27.6872C22.4089 27.6932 22.2853 27.6654 22.1755 27.6066C22.0658 27.5478 21.974 27.4604 21.9101 27.3535C21.8461 27.2467 21.8124 27.1245 21.8125 27V27V21V21C21.8124 20.8755 21.8461 20.7533 21.9101 20.6465C21.974 20.5396 22.0658 20.4522 22.1755 20.3934C22.2853 20.3346 22.4089 20.3068 22.5333 20.3128C22.6576 20.3188 22.778 20.3585 22.8816 20.4276L22.8816 20.4276L27.3816 23.4276ZM23.1875 25.5984V25.7152L23.2847 25.6504L25.6828 24.052L25.7609 23.9999L25.6827 23.9479L23.2846 22.3542L23.1875 22.2897V22.4062V25.5984ZM18.6179 15.9451C20.211 14.8807 22.084 14.3125 24 14.3125C26.5684 14.3152 29.0309 15.3367 30.8471 17.1529C32.6633 18.9691 33.6848 21.4316 33.6875 24.0001C33.6875 25.916 33.1193 27.789 32.0549 29.3821C30.9904 30.9752 29.4774 32.2169 27.7072 32.9501C25.9371 33.6833 23.9893 33.8752 22.1101 33.5014C20.2309 33.1276 18.5047 32.2049 17.1499 30.8501C15.7951 29.4953 14.8724 27.7691 14.4986 25.8899C14.1249 24.0107 14.3167 22.0629 15.0499 20.2928C15.7831 18.5226 17.0248 17.0096 18.6179 15.9451Z" fill="white" stroke="white" stroke-width="0.125"/>
</svg>
